# xmcd
#
# Track frame offsets:
#  150
#  25036
#  52045
#  73743
#  98074
#  124505
#  150232
#  173814
#  201518
#  224622
#  242192
#  261603
#
# Disc length: 3765 seconds
#
# Revision: 1
# Processed by: cddbd v1.5.1PL2 Copyright (c) Steve Scherf et al.
# Submitted via: Collectorz.com_Music_Collector 6.11
#
DISCID=b00eb30c
DTITLE=Bridie O'Brien - Soft Side Of Dark
DYEAR=2006
DGENRE=Blues
TTITLE0=Liar
TTITLE1=Coconut
TTITLE2=Whole Lotta Love
TTITLE3=Violent Interpretations Of Your Sexy Glance
TTITLE4=Grey
TTITLE5=Face Of A Killer
TTITLE6=Black
TTITLE7=Had A Thought
TTITLE8=Angels
TTITLE9=Stooges
TTITLE10=Violent Interpretations (Radio Edit)
TTITLE11=Coconut (Radio Edit)
EXTD=
EXTT0=
EXTT1=
EXTT2=
EXTT3=
EXTT4=
EXTT5=
EXTT6=
EXTT7=
EXTT8=
EXTT9=
EXTT10=
EXTT11=
PLAYORDER=
